<?xml version="1.0" standalone="no"?>
<!DOCTYPE svg PUBLIC "-//W3C//DTD SVG 20010904//EN"
 "http://www.w3.org/TR/2001/REC-SVG-20010904/DTD/svg10.dtd">
<svg version="1.0" xmlns="http://www.w3.org/2000/svg"
 width="852.000000pt" height="181.000000pt" viewBox="0 0 852.000000 181.000000"
 preserveAspectRatio="xMidYMid meet">

<g transform="translate(0.000000,181.000000) scale(0.100000,-0.100000)"
fill="#000000" stroke="none">
<path d="M60 455 l0 -275 50 0 50 0 0 275 0 275 -50 0 -50 0 0 -275z"/>
<path d="M340 455 l0 -275 55 0 55 0 2 176 3 177 139 -177 140 -176 43 0 43 0
0 275 0 275 -50 0 -50 0 -2 -182 -3 -183 -144 183 -144 182 -44 0 -43 0 0
-275z"/>
<path d="M1000 455 l0 -275 55 0 55 0 0 115 0 115 110 0 110 0 0 40 0 40 -49
0 c-26 0 -76 3 -110 6 l-61 7 0 68 0 69 130 0 130 0 0 45 0 45 -185 0 -185 0
0 -275z"/>
<path d="M1510 455 l0 -275 55 0 55 0 0 275 0 275 -55 0 -55 0 0 -275z"/>
<path d="M1800 455 l0 -275 50 0 50 0 2 177 3 177 140 -177 140 -176 43 -1 42
0 0 275 0 275 -50 0 -50 0 -2 -181 -3 -182 -143 182 c-142 180 -144 181 -183
181 l-39 0 0 -275z"/>
<path d="M2450 455 l0 -275 55 0 55 0 0 275 0 275 -55 0 -55 0 0 -275z"/>
<path d="M2732 553 c6 -201 17 -248 74 -307 36 -37 110 -66 169 -66 58 0 130
28 168 66 57 58 69 104 74 307 l5 177 -55 0 -55 0 -4 -184 c-3 -168 -5 -187
-24 -213 -47 -64 -130 -78 -189 -31 -48 37 -55 71 -55 258 l0 170 -56 0 -56 0
4 -177z"/>
<path d="M3390 455 l0 -275 50 0 50 0 2 183 3 182 71 -135 c61 -115 75 -135
97 -138 30 -4 32 -1 116 158 l61 115 0 -182 0 -183 55 0 55 0 0 275 0 275 -58
0 -57 0 -75 -141 c-41 -78 -80 -148 -85 -156 -8 -11 -29 20 -91 139 l-80 153
-57 3 -57 3 0 -276z"/>
<path d="M4120 455 l0 -275 115 0 c142 0 204 13 258 53 134 101 134 343 0 444
-54 40 -116 53 -258 53 l-115 0 0 -275z m280 163 c121 -61 121 -265 0 -326
-32 -16 -62 -22 -107 -22 l-63 0 0 185 0 185 63 0 c45 0 75 -6 107 -22z"/>
<path d="M4750 455 l0 -275 190 0 190 0 0 45 0 45 -140 0 -140 0 0 75 0 75
115 0 115 0 0 45 0 45 -115 0 -115 0 0 65 0 65 135 0 135 0 0 45 0 45 -185 0
-185 0 0 -275z"/>
<path d="M5241 678 c11 -29 56 -145 99 -258 43 -113 82 -213 85 -223 6 -15 17
-17 58 -15 l50 3 103 270 c57 149 104 271 104 273 0 1 -24 2 -54 2 l-54 0 -73
-210 c-40 -115 -76 -206 -80 -202 -4 4 -38 97 -77 207 l-70 200 -56 3 -56 3
21 -53z"/>
<path d="M7050 455 l0 -275 195 0 195 0 0 45 0 45 -140 0 -140 0 0 230 0 230
-55 0 -55 0 0 -275z"/>
<path d="M7570 455 l0 -275 195 0 195 0 0 45 0 45 -140 0 -140 0 0 230 0 230
-55 0 -55 0 0 -275z"/>
<path d="M8090 455 l0 -275 50 0 50 0 0 95 0 95 83 0 c130 1 190 38 216 138
15 55 1 110 -42 159 -48 55 -78 63 -227 63 l-130 0 0 -275z m275 160 c19 -18
25 -35 25 -65 0 -30 -6 -47 -25 -65 -21 -22 -33 -25 -100 -25 l-75 0 0 90 0
90 75 0 c67 0 79 -3 100 -25z"/>
</g>
</svg>
